<svg xmlns="http://www.w3.org/2000/svg" viewBox="0 0 715.55 715.55"><defs><style>.cls-1{fill:none;stroke:#098bff;stroke-miterlimit:10;stroke-width:20px;}</style></defs><g id="Capa_2" data-name="Capa 2"><g id="Capa_1-2" data-name="Capa 1"><path class="cls-1" d="M182.73,607.84a5.46,5.46,0,0,0,2.24,4.4c44.74,32.54,105.18,53.75,162.54,55.62C527.64,673.71,675.58,524.07,667.72,344A309.41,309.41,0,0,0,567.19,128.86a.06.06,0,0,0-.08,0l-1.47.91s0,0,0,.06V559.78a.07.07,0,0,1-.06.07H439.83a.07.07,0,0,1-.06-.07V400.53a.07.07,0,0,0-.13,0L353.12,552s-.09,0-.12,0L270,400.51a.07.07,0,0,0-.13,0V559.78a.07.07,0,0,1-.07.07H233.56a.07.07,0,0,1-.06-.07V259.13a.06.06,0,0,1,.12,0L354.79,473.53a.08.08,0,0,0,.12,0L477.26,259.09a.07.07,0,0,1,.13,0V525.4a.07.07,0,0,0,.07.07h50.46a.07.07,0,0,0,.06-.07V98.69s0,0,0,0l-3.7-3.71h0c-49-32.32-103.42-47.41-166.48-47.41-171.34,0-310.25,138.91-310.25,310.25,0,84,35.93,162.77,90.36,218.83a3.66,3.66,0,0,0,6.29-2.54l0-33.83-.79-382.8.07-.07H281.46a.07.07,0,0,1,.06,0l73.41,136.66a.07.07,0,0,0,.12,0L424.83,157.4a.07.07,0,0,1,.06,0h45.9a.07.07,0,0,1,.06.1L355.58,375.1a.07.07,0,0,1-.12,0L258.81,195a.07.07,0,0,0-.06,0H182.32l-.07.07.43,388.64Z"/><circle class="cls-1" cx="357.77" cy="357.77" r="347.77"/></g></g></svg>